. 
 
http://www.torrenting.com          :     Once & For all ;)


               www . Torrenting . Com 

(((((((((((((= Enjoy No RAR releases =))))))))))))))))))))


...................................NFO:....................................

.[IMG]http://img600.imageshack.us/img600/5797/cae2e77d82.jpg[/IMG]





[b]Thx Hive

Source:

HBO HD Premiere Stream

Encode:

found that nice hd stream with 5.1 audio, looked perfect just the hbo triple-logo in 
the upper right corner was in the way of a perfect video.
blurred that logopack away, hardly noticeable now.
added brightness,sharpness,rgb and denoise.
got very nice
enjoy


Video: 720x400 @bitrate 1800 2pass
Audio: English AC3 5.1 @384
Sample: yes included[/b]


[url]http://www.imdb.com/title/tt1626135/[/url]


General
Complete name                  :
Format                         : AVI
Format/Info                    : Audio Video Interleave
File size                      : 1.28 GiB
Duration                       : 1h 24mn
Overall bit rate               : 2 185 Kbps
Writing application            : Nandub v1.0rc2
Writing library                : Nandub build 1853/release

Video
ID                             : 0
Format                         : MPEG-4 Visual
Format profile                 : Advanced Simple@L5
Format settings, BVOP          : 2
Format settings, QPel          : Yes
Format settings, GMC           : No warppoints
Format settings, Matrix        : Default (H.263)
Muxing mode                    : Packed bitstream
Codec ID                       : XVID
Codec ID/Hint                  : XviD
Duration                       : 1h 24mn
Bit rate                       : 1 791 Kbps
Width                          : 720 pixels
Height                         : 400 pixels
Display aspect ratio           : 16:9
Frame rate                     : 25.000 fps
Color space                    : YUV
Chroma subsampling             : 4:2:0
Bit depth                      : 8 bits
Scan type                      : Progressive
Compression mode               : Lossy
Bits/(Pixel*Frame)             : 0.249
Stream size                    : 1.05 GiB (82%)
Writing library                : XviD 1.2.1 (UTC 2008-12-04)

Audio
ID                             : 1
Format                         : AC-3
Format/Info                    : Audio Coding 3
Mode extension                 : CM (complete main)
Codec ID                       : 2000
Duration                       : 1h 24mn
Bit rate mode                  : Constant
Bit rate                       : 384 Kbps
Channel(s)                     : 6 channels
Channel positions              : Front: L C R, Side: L R, LFE
Sampling rate                  : 48.0 KHz
Bit depth                      : 16 bits
Compression mode               : Lossy
Delay relative to video        : 16ms
Stream size                    : 231 MiB (18%)
Alignment                      : Split accross interleaves
Interleave, duration           : 40 ms (1.00 video frame)
Interleave, preload duration   : 500 ms


Plot:

An engaged guy is forced by his future father-in-law to take a side job moonlighting 
as an exotic dancer in order to pay extravagant wedding neither of them can afford. 

Cast:

Jenna Dewan-Tatum	... 	Rachel Matthews (as Jenna Dewan)
Christopher McDonald	... 	Mr. Matthews
Mimi Rogers	... 	Mrs. Matthews
Colleen Camp	... 	Maureen
Melissa Molinaro	... 	Melissa


[img]http://img835.imageshack.us/img835/3636/78250421.png[/img]
[img]http://img651.imageshack.us/img651/7820/bbaa.png[/img]
[img]http://img706.imageshack.us/img706/9057/bbabaa.png[/img]
[img]http://img708.imageshack.us/img708/385/bbababaa.png[/img]
[img]http://img265.imageshack.us/img265/889/bbabababbaabaa.png[/img]
[img]http://img839.imageshack.us/img839/9350/bbbabababaabaa.png[/img]
[img]http://img508.imageshack.us/img508/864/bbabababbaababaa.png[/img]
[img]http://img690.imageshack.us/img690/7117/bbabababbabaababaa.png[/img]
[img]http://img849.imageshack.us/img849/1700/bbababbaabaa.png[/img]
[img]http://img846.imageshack.us/img846/6616/bbabbaabaa.png[/img]





Greetz

ViSiON,SiC,SANTi,3LT0N,YanKeeS,MAGNET,THC,T0XiC,LKRG,FANTASIA-PLAY,FANTASIA-M,FLAWL3SS,
D2U,WBZ,BHRG,NOVA,Vik,Rapeseed,SAFC,goldadvance,MEMORY100,KaN1vE,Unevano,Pinnz,Wayne
Mr Hive,cedrict wink,and all P2P groups
Great Work Guys :D

LOOKING FOR ANYTHING YOU WANT TO LOOK AND SOUND BETTER

CM8@hushmail.com